# xmcd
#
# Track frame offsets:
#      150
#      17385
#      41337
#      57770
#      77802
#      96125
#      118655
#      136630
#      152145
#      169487
# 
# Disc length: 2598 seconds
#
# Revision: 2
# Processed by: cddbd v1.4PL0 Copyright (c) Steve Scherf et al.
#
# Submitted via: FreeRIP 1.20
#
DISCID=720a240a
DTITLE=North Neville Blues Band - N2B2
DYEAR=1993
DGENRE=Blues Rock
TTITLE0=As Fast As You Can
TTITLE1=Satisfy Your Soul
TTITLE2=How the Blues Got Me
TTITLE3=Landlorder's Blues
TTITLE4=For My Own
TTITLE5=North Neville Blues
TTITLE6=Watch Out Willie
TTITLE7=Rich's rag
TTITLE8=Juice
TTITLE9=Shake These Blues
EXTD=
EXTT0=
EXTT1=
EXTT2=
EXTT3=
EXTT4=
EXTT5=
EXTT6=
EXTT7=
EXTT8=
EXTT9=
PLAYORDER=
